# xmcd
#
# Track frame offsets: 
#        150
#        28988
#        58938
#        80989
#        104414
#        156251
#        168669
#        182886
#        201042
#        218982
#        234417
#        251844
#
# Disc length: 3658 seconds
#
# Revision: 0
# Processed by: cddbd v1.5.1PL2 Copyright (c) Steve Scherf et al.
# Submitted via: ExactAudioCopy v0.95b3
#
DISCID=b70e480c
DTITLE=George Thorogood and The Destroyers - Then And Now
DYEAR=1999
DGENRE=Blues
TTITLE0=Bad To The Bone
TTITLE1=Who Do You Love
TTITLE2=Move It On Over
TTITLE3=I Drink Alone
TTITLE4=One Bourbon, One Scotch, One Beer
TTITLE5=I'm Ready
TTITLE6=Night Time
TTITLE7=Nadine
TTITLE8=Be Bop Grandma
TTITLE9=Half A Boy Half A Man
TTITLE10=99 Days In Jail
TTITLE11=I Don't Trust Nobody
EXTD=
EXTT0=
EXTT1=
EXTT2=
EXTT3=
EXTT4=
EXTT5=
EXTT6=
EXTT7=
EXTT8=
EXTT9=
EXTT10=
EXTT11=
PLAYORDER=
